# xmcd
#
# Track frame offsets:
#	150
#	13454
#	25120
#	34292
#	44153
#	55805
#	71270
#	79897
#	94176
#	108534
#	124831
#	138546
#	151726
#	160987
#
# Disc length: 2273 seconds
#
# Revision: 1
# Processed by: cddbd v1.5.2PL0 Copyright (c) Steve Scherf et al.
# Submitted via: audiograbber 1.83.01
#
DISCID=c108df0e
DTITLE=Diverse - Deutsche Country Hits - CD 2
DYEAR=2008
DGENRE=Country
TTITLE0=Freddy Quinn - It's Country Time
TTITLE1=Jonny Hill - Oh warum nicht (Oh, Lonesome Me)
TTITLE2=Mary Roos - 7000 Rinder
TTITLE3=Dieter-Thomas Heck - Das wilde Leben im Wilden Westen
TTITLE4=Benny Maro - Rosalie aus Tennessee
TTITLE5=Neno Mal Boro - Halleluja Amigo
TTITLE6=Florian Haidt - Was ein Cowboy alles schafft
TTITLE7=Maik Frajria - Dreckige Stiefel
TTITLE8=Trio Melody - Fahr niemals schneller als Dein Schutzengel
TTITLE9=Timmeltruck - Truck durch Südtirol
TTITLE10=Peter Kaufmann Quintett - Country Music
TTITLE11=Ensemble Sonnenwend and Regina - Der Trucker-Charlie
TTITLE12=Bill Ramsey - Der Tramp
TTITLE13=Martin Lauer - Die letzte Rose der Prärie
EXTD=
EXTT0=
EXTT1=
EXTT2=
EXTT3=
EXTT4=
EXTT5=
EXTT6=
EXTT7=
EXTT8=
EXTT9=
EXTT10=
EXTT11=
EXTT12=
EXTT13=
PLAYORDER=
